<?xml version="1.0" encoding="UTF-8"?>
<!DOCTYPE svg PUBLIC "-//W3C//DTD SVG 1.1//EN" "http://www.w3.org/Graphics/SVG/1.1/DTD/svg11.dtd">
<svg version="1.1" xmlns="http://www.w3.org/2000/svg" xmlns:xlink="http://www.w3.org/1999/xlink" x="0" y="0" width="280" height="280" viewBox="0, 0, 280, 280">
  <g id="Layer_1">
    <path d="M59.447,198.836 L59.447,155.517 L82.052,155.517 L82.052,263.603 L59.447,263.603 L59.447,215.343 L33.582,215.343 L33.582,263.603 L10.976,263.603 L10.976,155.517 L33.582,155.517 L33.582,198.836 L59.447,198.836 z" fill="#FBB040"/>
    <path d="M143.876,155.517 L143.876,173.496 L125.476,173.496 L125.476,263.603 L102.87,263.603 L102.87,173.496 L85.312,173.496 L85.312,155.517 L143.876,155.517 z" fill="#FBB040"/>
    <path d="M205.174,155.517 L245.864,155.517 C266.577,155.517 274.568,168.134 274.568,187.901 C274.568,200.203 270.993,219.654 244.497,219.654 L227.78,219.654 L227.78,263.709 L205.174,263.709 L205.174,155.517 z M227.78,202.936 L240.397,202.936 C247.126,202.936 251.752,195.576 251.752,188.427 C251.752,179.595 249.334,172.13 239.135,172.13 L227.78,172.13 L227.78,202.936 z" fill="#FBB040"/>
    <path d="M202.335,155.517 L202.335,173.496 L183.935,173.496 L183.935,263.603 L161.33,263.603 L161.33,173.496 L143.771,173.496 L143.771,155.517 L202.335,155.517 z" fill="#FBB040"/>
    <path d="M198.971,107.888 L169.951,81.497 C168.584,80.34 166.587,80.445 165.325,81.707 L145.243,103.472 L45.883,13.995 L27.483,35.865 L131.364,119.453 L110.966,141.533 C109.81,142.9 109.915,144.898 111.177,146.159 L140.196,172.55 C141.563,173.707 143.561,173.602 144.822,172.34 L199.181,112.409 C200.337,111.147 200.337,109.149 198.971,107.888 z" fill="#59565B"/>
  </g>
</svg>
