<?xml version="1.0" encoding="utf-8"?>
<!-- Generator: Adobe Illustrator 18.0.0, SVG Export Plug-In . SVG Version: 6.00 Build 0)  -->
<!DOCTYPE svg PUBLIC "-//W3C//DTD SVG 1.1//EN" "http://www.w3.org/Graphics/SVG/1.1/DTD/svg11.dtd">
<svg version="1.1" id="Layer_1" xmlns="http://www.w3.org/2000/svg" xmlns:xlink="http://www.w3.org/1999/xlink" x="0px" y="0px"
	 viewBox="0 0 625 1000" enable-background="new 0 0 625 1000" xml:space="preserve">
<path fill="#FBB040" d="M233.2,620v-41.2h21.5v102.8h-21.5v-45.9h-24.6v45.9h-21.5V578.8h21.5V620H233.2z"/>
<path fill="#FBB040" d="M313.5,578.8v17.1h-17.5v85.7h-21.5v-85.7h-16.7v-17.1H313.5z"/>
<path fill="#FBB040" d="M371.8,578.8h38.7c19.7,0,27.3,12,27.3,30.8c0,11.7-3.4,30.2-28.6,30.2h-15.9v41.9h-21.5V578.8z
	 M393.3,623.9h12c6.4,0,10.8-7,10.8-13.8c0-8.4-2.3-15.5-12-15.5h-10.8V623.9z"/>
<path fill="#FBB040" d="M369.1,578.8v17.1h-17.5v85.7h-21.5v-85.7h-16.7v-17.1H369.1z"/>
<path fill="#59565B" d="M365.9,533.5l-27.6-25.1c-1.3-1.1-3.2-1-4.4,0.2l-19.1,20.7l-94.5-85.1l-17.5,20.8l98.8,79.5l-19.4,21
	c-1.1,1.3-1,3.2,0.2,4.4l27.6,25.1c1.3,1.1,3.2,1,4.4-0.2l51.7-57C367.2,536.6,367.2,534.7,365.9,533.5z"/>
</svg>
